<?xml version="1.0" encoding="UTF-8"?>
<svg version="1.1" xmlns="http://www.w3.org/2000/svg" width="2752" height="2752">
<path d="M0 0 C49.47893207 -1.61957142 105.88765598 9.15561527 145.71240234 40.08691406 C146.75396484 40.85132813 147.79552734 41.61574219 148.86865234 42.40332031 C164.08503892 53.71931801 177.78319048 67.57832494 188.71240234 83.08691406 C189.17171143 83.73740723 189.63102051 84.38790039 190.10424805 85.05810547 C243.84519345 163.31819178 241.25380185 269.31367454 227.44677734 432.09863281 C227.28831141 433.53008322 227.28831141 433.53008322 227.12664413 434.99045181 C224.8755293 455.23799632 222.27332388 475.43424764 219.60595703 495.63046265 C214.62472239 533.37618209 209.96876267 571.13326671 206.03479004 609.00360107 C205.73596147 611.8615948 205.43048426 614.71876352 205.12158203 617.57568359 C195.69525191 705.00033606 191.03419945 794.29563021 196.71240234 882.08691406 C196.77556641 883.06488953 196.83873047 884.04286499 196.90380859 885.05047607 C198.8693875 915.04301815 201.92306234 944.7849646 206.33282471 974.51647949 C206.7019373 977.0160466 207.0634492 979.51659841 207.42285156 982.01757812 C209.90948532 999.22525882 212.97091875 1016.22398201 216.96240234 1033.14941406 C217.12487457 1033.84308075 217.2873468 1034.53674744 217.45474243 1035.25143433 C224.42300463 1064.71359702 233.26084419 1093.61365653 242.88336182 1122.30047607 C245.18052836 1129.15246716 247.46328534 1136.00926893 249.73974609 1142.86816406 C249.98758158 1143.61461245 250.23541706 1144.36106083 250.49076271 1145.13012886 C254.37638459 1156.85242926 258.10507173 1168.6183064 261.72021484 1180.42675781 C261.94620298 1181.16210754 262.17219112 1181.89745728 262.40502739 1182.65509033 C269.50269004 1205.79701566 274.77743013 1229.0276461 277.71240234 1253.08691406 C277.81552734 1253.86083496 277.91865234 1254.63475586 278.02490234 1255.43212891 C279.05379019 1264.02517975 278.95620827 1272.69480962 278.96240234 1281.33691406 C278.96341446 1282.60580475 278.96341446 1282.60580475 278.96444702 1283.90032959 C278.94765829 1297.16845159 278.39953643 1310.05325582 275.71240234 1323.08691406 C275.46296875 1324.33214844 275.46296875 1324.33214844 275.20849609 1325.60253906 C267.99368177 1360.4474201 249.43072028 1393.44245771 221.71240234 1416.08691406 C220.69377019 1416.96405045 219.6755808 1417.84170116 218.65771484 1418.71972656 C183.83769559 1448.21040164 139.33711779 1460.57773887 94.71240234 1465.08691406 C93.79289795 1465.18190186 92.87339355 1465.27688965 91.92602539 1465.37475586 C83.7932352 1466.1395631 75.68960952 1466.28762873 67.52490234 1466.27441406 C66.82953369 1466.27380981 66.13416504 1466.27320557 65.41772461 1466.27258301 C2.15101527 1466.12467931 -57.45807093 1450.03285479 -103.28759766 1405.08691406 C-103.78501465 1404.60561035 -104.28243164 1404.12430664 -104.79492188 1403.62841797 C-117.14225894 1391.54038794 -127.57906141 1375.53296602 -135.28759766 1360.08691406 C-135.28759766 1359.42691406 -135.28759766 1358.76691406 -135.28759766 1358.08691406 C-138.6955451 1360.74677548 -141.65139649 1363.40493943 -144.44384766 1366.70800781 C-148.500969 1371.39816658 -152.83048114 1375.77704877 -157.22509766 1380.14941406 C-157.985 1380.91318359 -158.74490234 1381.67695312 -159.52783203 1382.46386719 C-164.28391015 1387.2118222 -169.16457754 1391.73831154 -174.28759766 1396.08691406 C-174.8930542 1396.60439209 -175.49851074 1397.12187012 -176.12231445 1397.6550293 C-192.86692097 1411.84816259 -210.85847344 1422.94154684 -230.28759766 1433.08691406 C-231.02252441 1433.47363281 -231.75745117 1433.86035156 -232.51464844 1434.25878906 C-249.76633083 1443.29596931 -267.67668891 1450.37777932 -286.28759766 1456.08691406 C-287.02284668 1456.31475586 -287.7580957 1456.54259766 -288.515625 1456.77734375 C-348.17727813 1474.87986967 -414.40580337 1473.81270133 -475.28759766 1463.08691406 C-476.31530273 1462.9093457 -477.34300781 1462.73177734 -478.40185547 1462.54882812 C-531.09318634 1453.27369897 -583.7010735 1432.77691092 -628.28759766 1403.08691406 C-629.08149902 1402.55952637 -629.87540039 1402.03213867 -630.69335938 1401.48876953 C-650.61220755 1388.19488631 -669.22506932 1373.8048054 -686.75634766 1357.50048828 C-688.32855037 1356.04910855 -689.91540459 1354.61536737 -691.50634766 1353.18457031 C-698.72733906 1346.66221091 -705.44188644 1339.82998594 -711.93701172 1332.5859375 C-713.17412328 1331.21285996 -714.42922113 1329.85604315 -715.68603516 1328.50097656 C-777.47274311 1261.51117741 -811.31186357 1170.24896002 -836.53759766 977.33691406 C-836.5382724 976.2071817 -836.53894714 975.07744934 -836.53964233 973.91348267 C-836.49016639 921.22067783 -830.1789071 868.38913762 -817.11035156 817.30957031 C-816.53974734 815.07456267 -815.97749595 812.83741233 -815.421875 810.59863281 C-805.9685343 772.56055526 -791.86988921 736.11460608 -774.28759766 701.08691406 C-773.75344238 700.02134277 -773.21928711 698.95577148 -772.66894531 697.85791016 C-755.76023753 664.31686277 -735.02438505 632.45416618 -709.62353516 604.66894531 C-708.35835675 603.27047887 -707.09926865 601.86587751 -705.8762207 600.43041992 C-700.84572666 594.5456767 -695.42638772 589.07340438 -689.94506836 583.61401367 C-688.35300799 582.0273146 -686.76636775 580.43533664 -685.18017578 578.84277344 C-679.72297768 573.38131373 -674.20170337 568.05695472 -668.28759766 563.08691406 C-667.33880737 562.27806763 -667.33880737 562.27806763 -666.37084961 561.45288086 C-655.73753026 552.4300655 -644.7470136 544.03090091 -633.28759766 536.08691406 C-632.44648437 535.50377441 -631.60537109 534.92063477 -630.73876953 534.31982422 C-619.64137565 526.6743561 -608.39649072 519.5713364 -596.48828125 513.25927734 C-594.30226252 512.09472643 -592.13225093 510.90413805 -589.96337891 509.70800781 C-544.95555648 485.13078056 -496.77798655 470.98117682 -446.28759766 463.08691406 C-445.20430176 462.90902344 -444.12100586 462.73113281 -443.00488281 462.54785156 C-406.76330988 456.80119347 -367.40676599 457.87767507 -331.28759766 464.08691406 C-329.53576172 464.37574463 -329.53576172 464.37574463 -327.74853516 464.67041016 C-284.87227014 471.84642934 -245.13731627 488.56221432 -209.26416016 513.06347656 C-192.09968309 525.69345099 -192.09968309 525.69345099 -173.28759766 535.08691406 C-172.61355726 510.8935407 -172.61355726 510.8935407 -176.28759766 487.08691406 C-176.54573242 486.03810059 -176.80386719 484.98928711 -177.06982422 483.90869141 C-177.99576402 480.17058118 -178.94828865 476.44030665 -179.91259766 472.71191406 C-180.20650391 471.57294678 -180.50041016 470.43397949 -180.80322266 469.26049805 C-186.97027814 446.33616146 -195.37910317 424.17550366 -204.16259766 402.14941406 C-205.08905569 399.81179155 -206.01483746 397.4739009 -206.93994141 395.13574219 C-208.7869802 390.47026501 -210.63579631 385.80550064 -212.48681641 381.14160156 C-212.94572266 379.98523193 -213.40462891 378.8288623 -213.87744141 377.63745117 C-214.83250523 375.23276052 -215.78859063 372.8284754 -216.74560547 370.42456055 C-222.33602929 356.37318091 -227.83903151 342.33912401 -232.53759766 327.96191406 C-232.78462433 327.21208252 -233.031651 326.46225098 -233.28616333 325.68969727 C-244.14486333 292.66892704 -251.87273128 258.98517392 -253.20849609 224.14013672 C-253.27727129 222.35495337 -253.36297281 220.57043777 -253.45166016 218.78613281 C-254.84001251 168.11127188 -235.39265139 117.47695948 -200.77709961 80.66821289 C-182.29447223 61.44400784 -160.67393874 46.67868151 -137.28759766 34.08691406 C-136.66191895 33.74805176 -136.03624023 33.40918945 -135.39160156 33.06005859 C-100.00057817 14.0817265 -59.21100293 4.17026633 -19.28759766 1.08691406 C-18.61519043 1.03196777 -17.9427832 0.97702148 -17.25 0.92041016 C-11.5036229 0.4621599 -5.75949769 0.21882403 0 0 Z M-386.78125 807.52099609 C-414.70809929 835.25022857 -426.84572164 875.00624905 -432.28759766 913.08691406 C-432.55467529 914.92890381 -432.55467529 914.92890381 -432.82714844 916.80810547 C-434.23713304 927.16703346 -434.59905457 937.39553928 -434.54833984 947.84277344 C-434.53763406 950.45303716 -434.54830226 953.06260865 -434.56103516 955.67285156 C-434.57568027 971.6582729 -433.147757 987.33241839 -430.03759766 1003.02441406 C-429.82143799 1004.12068115 -429.60527832 1005.21694824 -429.38256836 1006.34643555 C-423.54591752 1034.96371148 -412.04546814 1066.47614234 -387.31494141 1084.21972656 C-369.88939705 1095.47675283 -350.43838884 1098.19195854 -330.28759766 1094.08691406 C-304.57764418 1087.91531392 -283.91901908 1069.98238618 -270.13916016 1047.95019531 C-259.20247248 1029.69890262 -251.97615939 1009.97106558 -247.53759766 989.21191406 C-247.35092529 988.34139404 -247.16425293 987.47087402 -246.97192383 986.57397461 C-243.24740358 967.8777861 -241.73322135 949.31247707 -241.85009766 930.27441406 C-241.8528067 929.23063599 -241.85551575 928.18685791 -241.85830688 927.1114502 C-241.9211435 911.10294213 -242.73845086 895.75121531 -246.28759766 880.08691406 C-246.47483398 879.20342285 -246.66207031 878.31993164 -246.85498047 877.40966797 C-252.31272491 851.86007156 -262.17163714 828.97987909 -279.28759766 809.08691406 C-280.1403125 808.06404297 -280.1403125 808.06404297 -281.01025391 807.02050781 C-293.20073528 793.58291837 -311.9425666 785.34354291 -329.82275391 784.12597656 C-352.07684423 783.8750849 -370.7786098 792.15657822 -386.78125 807.52099609 Z " fill="#EAEAEA" transform="translate(2395.28759765625,639.9130859375)"/>
<path d="M0 0 C1.31085571 -0.00101212 1.31085571 -0.00101212 2.64819336 -0.00204468 C83.89332698 0.09587851 174.55606466 17.11200451 248.8125 74.25 C249.38226562 74.72356934 249.95203125 75.19713867 250.5390625 75.68505859 C254.32578484 78.84030678 258.07479846 82.03688815 261.8125 85.25 C262.92044922 86.18779297 262.92044922 86.18779297 264.05078125 87.14453125 C273.27561877 95.03833009 281.27399043 103.75147794 288.8125 113.25 C289.48023438 114.05050781 290.14796875 114.85101562 290.8359375 115.67578125 C332.77892058 166.32234778 347.16700738 236.0606625 341.5234375 300.296875 C338.86442394 327.36369652 332.21531013 353.91616399 319.8125 378.25 C319.43512695 378.99781738 319.05775391 379.74563477 318.66894531 380.51611328 C311.00397107 395.50393147 301.30924011 407.9968954 289.8125 420.25 C289.25046875 420.88808594 288.6884375 421.52617188 288.109375 422.18359375 C257.58212102 455.25478556 204.64081884 473.20427929 160.8125 475.25 C118.71744234 476.55820276 77.44736915 472.41015706 39.8125 452.25 C39.20277344 451.93305176 38.59304688 451.61610352 37.96484375 451.28955078 C28.50710789 446.36407225 20.6072074 440.48157381 12.8125 433.25 C12.26174805 432.74307617 11.71099609 432.23615234 11.14355469 431.71386719 C2.85150198 423.99932251 -4.0752059 415.80178409 -10.1875 406.25 C-10.64374756 405.54633301 -11.09999512 404.84266602 -11.57006836 404.11767578 C-16.08003738 396.91329508 -19.50637475 389.28140519 -22.875 381.5 C-23.17641907 380.81035156 -23.47783813 380.12070312 -23.78839111 379.41015625 C-28.26417365 369.15223556 -32.30305711 358.78950677 -36.0625 348.25 C-44.96237201 321.48583933 -44.96237201 321.48583933 -64.1875 302.25 C-73.69293326 301.19718302 -80.62196014 302.89051152 -88.15234375 308.7890625 C-99.46547377 319.23576025 -105.30253785 335.98514273 -106.39208984 351.08544922 C-108.03292916 401.26847896 -87.72615186 457.16731478 -53.87890625 494.4609375 C-36.59630532 512.37062845 -14.46353161 521.0257485 10.36328125 521.515625 C12.9505208 521.52084911 15.53780207 521.51557771 18.125 521.5 C19.39794922 521.50773437 20.67089844 521.51546875 21.98242188 521.5234375 C37.92137885 521.49135102 53.38933342 518.89941675 69.07226562 516.27786255 C124.14322179 507.13394911 183.30792382 502.35326229 231.87890625 535.33203125 C272.67560672 564.85245988 292.31894578 612.15673287 300.42700195 660.54199219 C301.5030665 668.10102196 301.9908379 675.51594323 302.05078125 683.15234375 C302.06052979 684.17972656 302.07027832 685.20710938 302.08032227 686.265625 C302.39980923 728.61362247 302.39980923 728.61362247 297.8125 748.25 C297.62526367 749.09820313 297.43802734 749.94640625 297.24511719 750.8203125 C293.34508017 768.22565904 287.09676342 784.78211282 278.72949219 800.51757812 C277.89700726 802.09034518 277.09145693 803.67729552 276.2890625 805.265625 C262.12063186 832.66314281 236.81700063 853.35847613 207.8125 863.25 C166.32747039 876.18449592 124.53215363 863.21330937 85.8347168 847.66113281 C59.43236585 836.60162231 59.43236585 836.60162231 31.8125 838.25 C29.7784094 839.53072371 27.76847184 840.85287726 25.8125 842.25 C25.1525 842.25 24.4925 842.25 23.8125 842.25 C23.52375 842.83265625 23.235 843.4153125 22.9375 844.015625 C22.24608256 845.38885685 21.54073713 846.7553091 20.8125 848.109375 C4.38332779 879.1707787 20.8564309 924.57659975 30.40039062 955.72119141 C38.03369148 980.34540447 47.15113723 1004.36123688 56.8125 1028.25 C90.77124082 1112.27907728 127.40994692 1203.7639452 97.4296875 1333.6484375 C84.86341657 1361.63419064 66.89720583 1387.84606738 42.8125 1407.25 C41.76249688 1408.13479526 40.713075 1409.0202805 39.6640625 1409.90625 C-21.60244214 1460.99665437 -107.39634027 1476.45020805 -185.0625 1476.5 C-186.02048492 1476.50067474 -186.97846985 1476.50134949 -187.96548462 1476.50204468 C-259.7559406 1476.42252111 -337.98271201 1462.33121891 -395.1875 1416.25 C-396.08976318 1415.52925293 -396.08976318 1415.52925293 -397.01025391 1414.79394531 C-438.71294303 1381.1997965 -462.90062682 1331.47778758 -469.17211914 1278.78076172 C-476.56961175 1208.23576779 -452.95008001 1138.25934162 -428.1875 1073.25 C-427.86054138 1072.39132324 -427.53358276 1071.53264648 -427.19671631 1070.64794922 C-420.74906014 1053.7248427 -414.2906053 1036.8049243 -407.73350525 1019.9238739 C-375.26939573 943.20855224 -375.26939573 943.20855224 -376.99609375 863 C-379.73944255 857.34260514 -384.74435506 854.52477917 -390.43516541 852.41783142 C-396.49512097 850.55229758 -402.32396423 849.57291967 -408.62890625 849.00390625 C-410.61523606 848.80405323 -412.60156413 848.60418288 -414.58789062 848.40429688 C-417.65864358 848.10744197 -420.72973397 847.81442168 -423.80102539 847.52319336 C-453.29152841 844.69227621 -483.55872412 837.71174761 -506.1875 817.25 C-506.93902344 816.62738281 -507.69054687 816.00476562 -508.46484375 815.36328125 C-514.511108 810.26788249 -519.40498978 804.52964385 -524.1875 798.25 C-524.91839844 797.30769531 -525.64929688 796.36539063 -526.40234375 795.39453125 C-539.46113961 777.65384725 -546.76373439 756.70841646 -551.9375 735.5 C-552.13641846 734.6853125 -552.33533691 733.870625 -552.5402832 733.03125 C-555.60906855 719.80295519 -556.62875684 706.77853787 -556.625 693.25 C-556.6260675 692.4266214 -556.62713501 691.6032428 -556.62823486 690.75491333 C-556.54977149 648.44939749 -545.51092548 604.91366027 -515.1875 574.25 C-514.54683594 573.53714844 -513.90617188 572.82429688 -513.24609375 572.08984375 C-494.6115686 551.78779958 -468.37334676 543.90193222 -442.51025391 537.64672852 C-417.88585047 532.286551 -417.88585047 532.286551 -399.3125 516.375 C-397.22120332 512.12727976 -396.24313959 507.69015187 -395.375 503.0625 C-395.2507666 502.40459473 -395.1265332 501.74668945 -394.99853516 501.06884766 C-393.18245692 489.81023563 -394.13159483 478.47401585 -395.6875 467.25 C-395.85693115 465.97310303 -396.0263623 464.69620605 -396.20092773 463.38061523 C-397.56750007 453.20416036 -399.11268959 443.05454952 -400.65084839 432.90290833 C-405.34812785 401.87725415 -409.40928892 371.55023501 -409.5 340.125 C-409.50394775 339.19444794 -409.50789551 338.26389587 -409.51196289 337.30514526 C-409.54991874 318.69873588 -408.24439359 300.26208539 -404.9375 281.9375 C-404.72061523 280.72094727 -404.50373047 279.50439453 -404.28027344 278.25097656 C-398.67870399 247.61365861 -389.23502038 220.04304503 -375.1875 192.25 C-374.33181956 190.51833376 -373.47633949 188.78656848 -372.62109375 187.0546875 C-367.09606308 176.04206907 -360.57369161 166.09741918 -353.1875 156.25 C-352.754375 155.66524902 -352.32125 155.08049805 -351.875 154.47802734 C-349.05333618 150.67429225 -346.14949536 146.94524293 -343.1875 143.25 C-342.39214844 142.24839844 -341.59679687 141.24679687 -340.77734375 140.21484375 C-333.91303037 131.79985325 -326.27665995 124.12779972 -318.625 116.4375 C-317.82906937 115.63366882 -317.82906937 115.63366882 -317.01705933 114.81359863 C-310.08036994 107.82377762 -302.95916937 101.32264975 -295.1875 95.25 C-294.52065186 94.7238208 -293.85380371 94.1976416 -293.16674805 93.65551758 C-270.8722029 76.24868038 -246.73865532 61.3668154 -221.1875 49.25 C-220.31818848 48.83395508 -219.44887695 48.41791016 -218.55322266 47.98925781 C-151.0197509 15.80397997 -74.67895616 0.05297271 0 0 Z " fill="#EAEAEA" transform="translate(634.1875,633.75)"/>
<path d="M0 0 C0.77778809 0.24943359 1.55557617 0.49886719 2.35693359 0.75585938 C29.50697417 9.56250168 54.14470998 24.630549 75 44 C75.78890625 44.72960937 76.5778125 45.45921875 77.390625 46.2109375 C130.98792209 97.90911777 145.46134293 180.24121841 146.90234375 251.4296875 C148.11244764 322.44399524 135.94950992 392.99805841 123.36914062 462.61608887 C113.23031531 518.7425698 103.9758329 575.14882664 99 632 C98.92587891 632.82717529 98.85175781 633.65435059 98.77539062 634.5065918 C94.07024949 687.33386545 94.08963132 741.1908461 99 794 C99.07261047 794.79702332 99.14522095 795.59404663 99.22003174 796.41522217 C102.62028527 833.56282535 109.04102174 870.2288398 116.54022217 906.74761963 C116.96071383 908.80754316 117.37321868 910.86882679 117.78173828 912.93115234 C123.10580705 939.55869576 131.20040479 965.48448424 138.95141602 991.48248291 C139.97128253 994.9036661 140.988873 998.32551829 142.00585938 1001.74755859 C147.6195859 1020.62589512 153.2719868 1039.49166099 159.12173462 1058.2983551 C171.50934617 1098.1242829 182.33847344 1138.44919467 187 1180 C187.1016748 1180.88768066 187.20334961 1181.77536133 187.30810547 1182.68994141 C188.31085954 1192.80506673 188.24369622 1202.97025334 188.25 1213.125 C188.25101212 1214.59131363 188.25101212 1214.59131363 188.25204468 1216.08724976 C188.18938792 1273.34088743 172.11191587 1325.62501003 134 1369 C133.35289062 1369.76957031 132.70578125 1370.53914063 132.0390625 1371.33203125 C128.74223353 1375.23303024 125.28933742 1378.69037267 121.3828125 1381.98046875 C119.59935262 1383.49202409 117.84928265 1385.04312995 116.1171875 1386.61328125 C99.69133718 1401.39304423 80.8514798 1412.46097724 61 1422 C60.2363916 1422.36786621 59.4727832 1422.73573242 58.68603516 1423.11474609 C33.68838076 1434.90651771 6.15600635 1442.38790091 -21 1447 C-21.95696777 1447.16435547 -22.91393555 1447.32871094 -23.89990234 1447.49804688 C-71.99482131 1455.49527515 -124.18755011 1454.54629609 -172 1445 C-172.95535645 1444.81131348 -173.91071289 1444.62262695 -174.89501953 1444.42822266 C-200.68140535 1439.1657829 -227.45959006 1430.90104824 -251 1419 C-251.76473633 1418.62166016 -252.52947266 1418.24332031 -253.31738281 1417.85351562 C-272.11557745 1408.51083546 -288.20843665 1397.22091013 -303.72265625 1383.0546875 C-305.6737616 1381.29434202 -307.66013544 1379.60815677 -309.6875 1377.9375 C-312.82590923 1375.26729168 -315.4744357 1372.31466712 -318.1328125 1369.171875 C-319.40454151 1367.69262536 -320.71405112 1366.24522354 -322.0546875 1364.828125 C-352.69887438 1332.33001934 -368.1635131 1285.71810655 -372 1242 C-372.16628906 1240.32164062 -372.16628906 1240.32164062 -372.3359375 1238.609375 C-376.49534164 1189.37102323 -366.99335477 1141.24940493 -354.625 1093.875 C-354.13531738 1091.9870874 -354.13531738 1091.9870874 -353.63574219 1090.06103516 C-350.7546765 1079.15851078 -347.37266544 1068.41416428 -344.00911713 1057.6526556 C-339.87984118 1044.44001802 -335.87094132 1031.19099271 -331.875 1017.9375 C-331.67335487 1017.26874722 -331.47170975 1016.59999443 -331.26395416 1015.91097641 C-306.11350483 932.47274716 -283.98845791 849.16671462 -275.25 752.6875 C-275.19083405 751.98125488 -275.13166809 751.27500977 -275.07070923 750.54736328 C-274.67113851 745.70090192 -274.32059905 740.85229306 -274 736 C-273.95194214 735.29324127 -273.90388428 734.58648254 -273.85437012 733.85830688 C-272.74713199 717.02861492 -272.75608308 700.17107209 -272.75 683.3125 C-272.74941086 682.5627314 -272.74882172 681.8129628 -272.74821472 681.04047394 C-272.73491115 656.99137416 -273.26464262 633.11667077 -275.77215576 609.17901611 C-276.00027515 606.99736857 -276.21984996 604.81499022 -276.43798828 602.63232422 C-283.75868214 530.24875987 -301.98802826 460.72893982 -323.81689453 391.5090332 C-350.55813011 306.68525442 -376.63718697 209.32107194 -333.90209961 115.49316406 C-333.23936913 114.23048642 -332.57341436 112.96949434 -331.90380859 111.71044922 C-331.10827345 110.20490647 -330.34270919 108.68360766 -329.58203125 107.16015625 C-314.37272587 77.49978065 -289.43980573 54.16914387 -262 36 C-260.60201172 35.06994141 -260.60201172 35.06994141 -259.17578125 34.12109375 C-186.10024984 -12.61212327 -82.65514963 -27.3762279 0 0 Z " fill="#EAEAEA" transform="translate(1367,658)"/>
<path d="M0 0 C0.33 0 0.66 0 1 0 C1.19393875 2.14526099 1.37998676 4.29123677 1.5625 6.4375 C1.66691406 7.63246094 1.77132813 8.82742188 1.87890625 10.05859375 C1.91886719 11.02925781 1.95882813 11.99992187 2 13 C1.67 13.33 1.34 13.66 1 14 C0.75577501 16.33844448 0.57589757 18.64853172 0.44360352 20.99414062 C0.40142228 21.71115395 0.35924105 22.42816727 0.31578159 23.16690826 C-0.11617312 31.14289251 -0.12626993 39.10852443 -0.09765625 47.09375 C-0.09578429 48.66271926 -0.09436408 50.23168912 -0.09336853 51.80065918 C-0.08960445 55.87096862 -0.07982872 59.94124068 -0.06866455 64.01153564 C-0.05831673 68.18867487 -0.05384268 72.36582032 -0.04882812 76.54296875 C-0.038199 84.69532939 -0.02119901 92.84766001 0 101 C-0.33 101 -0.66 101 -1 101 C-1.9235414 85.8481821 -2.19744242 70.74070196 -2.1875 55.5625 C-2.1882251 54.42800415 -2.1889502 53.2935083 -2.18969727 52.12463379 C-2.18846696 34.6709724 -1.7366543 17.37578057 0 0 Z " fill="#595A59" transform="translate(1561,1561)"/>
<path d="M0 0 C0.33 0 0.66 0 1 0 C2.52946593 4.08992342 3.24678251 7.46106509 3.22705078 11.82177734 C3.22689972 12.94248627 3.22674866 14.06319519 3.22659302 15.21786499 C3.21627045 16.41182892 3.20594788 17.60579285 3.1953125 18.8359375 C3.1924826 20.07042633 3.18965271 21.30491516 3.18673706 22.57681274 C3.17556522 26.50964149 3.15046564 30.44224037 3.125 34.375 C3.11383825 37.04556959 3.10584119 39.71613701 3.09765625 42.38671875 C3.07563565 48.92455725 3.04218759 55.4622622 3 62 C2.67 62 2.34 62 2 62 C1.98969254 61.44448959 1.97938507 60.88897919 1.96876526 60.31663513 C1.85936351 54.45880459 1.74490014 48.6010875 1.62768555 42.7434082 C1.58475853 40.56634936 1.54306034 38.38926588 1.50268555 36.2121582 C1.27748134 24.11507774 0.99087605 12.06194029 0 0 Z " fill="#464645" transform="translate(2151,1531)"/>
<path d="M0 0 C0.33 0 0.66 0 1 0 C1.69812674 4.49762862 2.39168694 8.99593098 3.08129883 13.49487305 C3.31576807 15.0204498 3.55141401 16.54584624 3.78833008 18.07104492 C5.12769197 26.69902732 6.37764905 35.28354389 7 44 C6.34 44 5.68 44 5 44 C2.70387244 27.29157175 2.70387244 27.29157175 3 19 C2.01 19.33 1.02 19.66 0 20 C0 13.4 0 6.8 0 0 Z " fill="#777877" transform="translate(1548,1805)"/>
<path d="M0 0 C0.33 0 0.66 0 1 0 C1.05534912 0.94842773 1.11069824 1.89685547 1.16772461 2.87402344 C1.37531533 6.40025741 1.58629475 9.92625491 1.79956055 13.45214844 C1.89108543 14.97680725 1.98126772 16.50154728 2.07006836 18.02636719 C2.19810848 20.22093187 2.33100981 22.41515696 2.46484375 24.609375 C2.50343002 25.2886908 2.5420163 25.96800659 2.58177185 26.66790771 C2.78335638 29.89783181 3.16352103 32.87833167 4 36 C3.91685386 37.92040756 3.76727868 39.83873231 3.5625 41.75 C3.46066406 42.73484375 3.35882812 43.7196875 3.25390625 44.734375 C3.17011719 45.48203125 3.08632813 46.2296875 3 47 C2.67 47 2.34 47 2 47 C0.43087981 31.29001876 -0.28954437 15.78684992 0 0 Z " fill="#5A5959" transform="translate(1010,873)"/>
<path d="M0 0 C0.33 0 0.66 0 1 0 C1.19393875 2.14526099 1.37998676 4.29123677 1.5625 6.4375 C1.66691406 7.63246094 1.77132813 8.82742188 1.87890625 10.05859375 C1.91886719 11.02925781 1.95882813 11.99992187 2 13 C1.67 13.33 1.34 13.66 1 14 C0.76321284 16.69235776 0.57801975 19.36498156 0.4375 22.0625 C0.39431641 22.82111328 0.35113281 23.57972656 0.30664062 24.36132812 C0.20026367 26.24065438 0.09960066 28.12030244 0 30 C-0.33 30 -0.66 30 -1 30 C-1.10055982 19.94401799 -1.09945892 10.01292948 0 0 Z " fill="#818081" transform="translate(1561,1561)"/>
<path d="M0 0 C2.48652995 3.72979493 3.1389409 5.11097256 2.44140625 9.57421875 C2.15624783 10.94695814 1.86298955 12.31803485 1.5625 13.6875 C1.41490234 14.38939453 1.26730469 15.09128906 1.11523438 15.81445312 C0.7504068 17.54444194 0.37611311 19.27242963 0 21 C-0.33 21 -0.66 21 -1 21 C-1.12109311 13.92278069 -0.85373239 7.02804699 0 0 Z " fill="#8F8E8E" transform="translate(1563,1540)"/>
<path d="M0 0 C0.66 0.33 1.32 0.66 2 1 C-2.66666667 5.66666667 -7.33333333 10.33333333 -12 15 C-12.66 14.67 -13.32 14.34 -14 14 C-9.38 9.38 -4.76 4.76 0 0 Z " fill="#7D7E7D" transform="translate(1078,714)"/>
<path d="M0 0 C0.33 0 0.66 0 1 0 C2.99118241 4.97011673 3.24845695 9.12333135 3.125 14.375 C3.11597656 15.11105469 3.10695313 15.84710937 3.09765625 16.60546875 C3.07430144 18.4037888 3.03843836 20.20193911 3 22 C2.67 22 2.34 22 2 22 C1.66076424 19.64655194 1.32849466 17.2924516 1 14.9375 C0.85691406 13.95233398 0.85691406 13.95233398 0.7109375 12.94726562 C0.11112326 8.59861237 -0.09127093 4.38670929 0 0 Z " fill="#908F8E" transform="translate(2151,1531)"/>
<path d="M0 0 C1.3805087 3.76668598 0.59568159 6.44789173 -0.4375 10.25 C-0.72496094 11.32765625 -1.01242187 12.4053125 -1.30859375 13.515625 C-1.53675781 14.33546875 -1.76492188 15.1553125 -2 16 C-2.33 16 -2.66 16 -3 16 C-3.33266291 9.79029227 -2.45029331 5.71735105 0 0 Z " fill="#8B8C8B" transform="translate(931,1378)"/>
<path d="M0 0 C0.33 0.66 0.66 1.32 1 2 C0.09515208 3.15518918 -0.8244206 4.29885406 -1.75 5.4375 C-2.26046875 6.07558594 -2.7709375 6.71367188 -3.296875 7.37109375 C-5.19667629 9.18810554 -6.43586908 9.60423197 -9 10 C-8.06409496 8.8944811 -7.12620142 7.79064547 -6.1875 6.6875 C-5.66542969 6.07261719 -5.14335938 5.45773437 -4.60546875 4.82421875 C-3.12827531 3.14575321 -1.59960869 1.56117966 0 0 Z " fill="#979797" transform="translate(1709,1220)"/>
<path d="M0 0 C0.66 0.33 1.32 0.66 2 1 C0.76110404 2.48847937 -0.4915672 3.96550105 -1.75 5.4375 C-2.79414063 6.67306641 -2.79414063 6.67306641 -3.859375 7.93359375 C-6.01343015 10.01296451 -7.08310781 10.63867326 -10 11 C-6.79239749 7.19364503 -3.59253891 3.45436433 0 0 Z " fill="#878787" transform="translate(2204,711)"/>
<path d="M0 0 C0.33 0 0.66 0 1 0 C0.67 5.61 0.34 11.22 0 17 C-0.33 17 -0.66 17 -1 17 C-2.51708428 5.47835991 -2.51708428 5.47835991 0 0 Z " fill="#898989" transform="translate(1468,1253)"/>
<path d="M0 0 C0.66 0.33 1.32 0.66 2 1 C-5.11389522 7.70387244 -5.11389522 7.70387244 -10 8 C-6.97727468 4.74475735 -3.74281699 2.38179263 0 0 Z " fill="#9B9B99" transform="translate(1772,1169)"/>
<path d="M0 0 C0.33 0 0.66 0 1 0 C1.08097324 2.27024968 1.13917704 4.54132075 1.1875 6.8125 C1.22230469 8.07707031 1.25710938 9.34164063 1.29296875 10.64453125 C1 14 1 14 -2 17 C-1.34 11.39 -0.68 5.78 0 0 Z " fill="#878687" transform="translate(260,1539)"/>
<path d="M0 0 C0.66 0.66 1.32 1.32 2 2 C1.74525692 6.58537549 1.14031285 9.58661647 -2 13 C-1.85769192 11.58297487 -1.71099254 10.1663904 -1.5625 8.75 C-1.48128906 7.96109375 -1.40007812 7.1721875 -1.31640625 6.359375 C-1.02365007 4.17635361 -0.57935581 2.1226818 0 0 Z " fill="#929191" transform="translate(1575,1470)"/>
<path d="M0 0 C0.66 0.33 1.32 0.66 2 1 C-3.14285714 6.57142857 -3.14285714 6.57142857 -7 7 C-7.33 6.34 -7.66 5.68 -8 5 C-6.71475739 4.13619741 -5.42157581 3.28419631 -4.125 2.4375 C-3.04605469 1.72400391 -3.04605469 1.72400391 -1.9453125 0.99609375 C-1.30335938 0.66738281 -0.66140625 0.33867188 0 0 Z " fill="#9E9E9E" transform="translate(2092,1721)"/>
<path d="M0 0 C1.1875 1.5625 1.1875 1.5625 2 4 C0.625 7.75 0.625 7.75 -1 11 C-2.60080151 6.99799622 -1.29279692 3.95443764 0 0 Z " fill="#939393" transform="translate(1584,1435)"/>
<path d="M0 0 C0.33 0 0.66 0 1 0 C0.67 4.29 0.34 8.58 0 13 C-2.13464982 8.73070035 -2.17477026 8.27189184 -1 4 C-0.814375 3.236875 -0.62875 2.47375 -0.4375 1.6875 C-0.293125 1.130625 -0.14875 0.57375 0 0 Z " fill="#7F7E7E" transform="translate(934,1358)"/>
<path d="M0 0 C0.33 0.66 0.66 1.32 1 2 C-2.625 7.875 -2.625 7.875 -6 9 C-4.47291037 5.56404834 -2.40072955 2.88087546 0 0 Z " fill="#919292" transform="translate(1678,1253)"/>
<path d="M0 0 C0.66 0.99 1.32 1.98 2 3 C0.625 5.5 0.625 5.5 -1 8 C-1.66 8 -2.32 8 -3 8 C-1.125 2.25 -1.125 2.25 0 0 Z " fill="#959593" transform="translate(1615,1353)"/>
<path d="M0 0 C-3.63423209 2.32590854 -6.77088331 2.16265833 -11 2 C-6.98764085 -0.6749061 -4.6342454 -1.48957888 0 0 Z M-6 2 C-4 3 -4 3 -4 3 Z " fill="#868687" transform="translate(1907,1113)"/>
<path d="M0 0 C0.99 0.33 1.98 0.66 3 1 C-0.465 3.97 -0.465 3.97 -4 7 C-3.67 5.68 -3.34 4.36 -3 3 C-2.01 2.67 -1.02 2.34 0 2 C0 1.34 0 0.68 0 0 Z " fill="#929291" transform="translate(925,1049)"/>
<path d="M0 0 C0.33 0 0.66 0 1 0 C2.79217969 5.16569441 3.12029814 8.51053913 2 14 C1.67 14 1.34 14 1 14 C0.67 9.38 0.34 4.76 0 0 Z " fill="#6E6F6E" transform="translate(1013,921)"/>
</svg>
